<?xml version="1.0" encoding="UTF-8"?> <svg xmlns="http://www.w3.org/2000/svg" xmlns:xlink="http://www.w3.org/1999/xlink" width="69" height="37" viewbox="0 0 69 37"><defs><path id="prefix__a" d="M0.246 0.506L33.692 0.506 33.692 36.798 0.246 36.798z"></path></defs><g fill="none" fill-rule="evenodd"><g transform="translate(.711 .206)"><mask id="prefix__b" fill="#fff"><use xlink:href="#prefix__a"></use></mask><path fill="#FFF" d="M21.673 26.982c-1.162.871-2.537 1.496-4.127 1.87-1.589.377-3.306.565-5.151.565H8.243V7.887h4.716c1.674 0 3.272.215 4.793.641 1.52.428 2.844 1.07 3.972 1.923 1.128.855 2.025 1.939 2.691 3.254.667 1.317 1 2.863 1 4.639 0 2.05-.333 3.786-1 5.203-.666 1.418-1.581 2.563-2.742 3.435zm12.019-9.43c-.123-2.798-.687-5.218-1.69-7.256-1.146-2.323-2.692-4.21-4.639-5.664-1.948-1.452-4.229-2.503-6.843-3.152C17.905.831 15.145.506 12.24.506H.246v36.292h13.07c2.7 0 5.281-.393 7.742-1.179 2.337-.746 4.408-1.83 6.222-3.238l6.412-14.828z" mask="url(#prefix__b)"></path></g><path fill="#FFF" d="M55.58 20.954h-3.957v3.957H47.43v-3.957h-3.956V16.76h3.956v-3.956h4.194v3.956h3.957v4.194zM52.78.711H46.17L30.484 37.003h8.815l3.026-7.689H56.42l3.127 7.69h9.02L52.782.71z"></path></g></svg> 