<?xml version="1.0" encoding="UTF-8"?> <svg xmlns="http://www.w3.org/2000/svg" width="117" height="38" viewBox="0 0 117 38"><g fill="none"><path fill="#B1B3B5" d="M107.535.127H8.243c-.3 0-.6 0-.9.018-.655.018-1.31.054-1.948.163-.655.109-1.273.29-1.873.598-.58.29-1.124.671-1.574 1.106-.468.453-.843.96-1.142 1.541C.487 4.115.3 4.713.187 5.348c-.112.616-.15 1.25-.168 1.885-.019.29-.019.58-.019.87v21.844c0 .29 0 .58.019.87.018.634.056 1.269.168 1.885.113.635.3 1.233.619 1.795.3.562.674 1.087 1.142 1.523.469.453.993.833 1.574 1.105.6.29 1.2.49 1.855.599.655.108 1.311.145 1.948.163.3 0 .6.018.9.018H108.602c.3 0 .6 0 .9-.018.655-.018 1.31-.055 1.948-.163.655-.11 1.255-.309 1.854-.599.581-.29 1.124-.67 1.574-1.105.468-.436.862-.961 1.161-1.523.3-.58.488-1.16.6-1.795.112-.634.15-1.25.187-1.885v-.87V9.136 8.103v-.87c-.018-.635-.056-1.269-.187-1.885-.112-.635-.3-1.215-.6-1.795-.3-.562-.693-1.088-1.161-1.523-.468-.453-.993-.815-1.574-1.105-.6-.29-1.217-.49-1.854-.599-.637-.108-1.293-.145-1.949-.163-.3 0-.6-.018-.9-.018-.355-.018-.711-.018-1.067-.018z"></path><path fill="#000" d="M8.243 37.09c-.3 0-.58 0-.88-.019-.544 0-1.2-.036-1.818-.145-.6-.109-1.124-.272-1.61-.526-.507-.254-.975-.58-1.368-.96-.413-.381-.731-.834-.993-1.324-.263-.471-.431-.997-.525-1.559-.112-.634-.15-1.287-.168-1.776 0-.2-.02-.87-.02-.87V8.103s0-.653.02-.852c.018-.49.037-1.142.168-1.776.075-.562.262-1.07.506-1.56.262-.489.6-.942.993-1.323.412-.399.862-.707 1.367-.96.506-.254 1.03-.417 1.612-.508C6.182.997 6.857.979 7.363.96h101.24l.9.018c.505.018 1.16.036 1.816.145.581.09 1.124.272 1.63.526.506.253.956.58 1.368.96.393.381.73.834.993 1.324.243.49.43.997.524 1.559.113.598.15 1.214.169 1.776V30.8c-.019.562-.056 1.16-.169 1.758-.093.58-.28 1.088-.524 1.577-.262.49-.6.943-.993 1.305-.412.4-.862.726-1.368.961-.506.254-1.03.417-1.63.526-.618.109-1.274.145-1.817.163-.28 0-.58.018-.88.018h-1.068l-99.31-.018z"></path><g fill="#FFF"><path d="M14.819 11.24c-.019-2.593 2.192-3.862 2.304-3.916-1.255-1.777-3.203-2.013-3.897-2.03-1.648-.164-3.222.942-4.065.942-.843 0-2.136-.925-3.522-.906-1.78.018-3.447 1.033-4.365 2.574-1.892 3.172-.487 7.813 1.33 10.369.9 1.25 1.967 2.646 3.354 2.61 1.348-.054 1.854-.834 3.503-.834 1.611 0 2.098.834 3.503.798 1.461-.018 2.36-1.251 3.241-2.52 1.05-1.432 1.461-2.846 1.48-2.919-.056-.018-2.847-1.05-2.866-4.169zM12.159 3.59c.73-.889 1.217-2.085 1.086-3.3-1.049.036-2.38.707-3.128 1.577-.675.762-1.274 2.012-1.125 3.172 1.18.091 2.398-.58 3.167-1.45z" transform="translate(9.367 8.067)"></path><g><path d="M8.435 9.463H3.807l-1.105 3.172H.753L5.137.906H7.18l4.384 11.729H9.577L8.435 9.463zm-4.14-1.469h3.671L6.168 2.846h-.075L4.294 7.994zM20.987 8.357c0 2.665-1.462 4.369-3.691 4.369-1.255 0-2.267-.544-2.773-1.505h-.037v4.242h-1.818V4.079h1.762v1.414h.037c.506-.925 1.574-1.505 2.81-1.505 2.23 0 3.71 1.704 3.71 4.369zm-1.874 0c0-1.74-.918-2.864-2.342-2.864-1.386 0-2.323 1.16-2.323 2.864 0 1.722.937 2.882 2.323 2.882 1.424-.018 2.342-1.142 2.342-2.882zM30.71 8.357c0 2.665-1.462 4.369-3.691 4.369-1.255 0-2.267-.544-2.773-1.505h-.037v4.242h-1.817V4.079h1.76v1.414h.038c.506-.925 1.574-1.505 2.81-1.505 2.248 0 3.71 1.704 3.71 4.369zm-1.855 0c0-1.74-.918-2.864-2.342-2.864-1.386 0-2.323 1.16-2.323 2.864 0 1.722.937 2.882 2.323 2.882 1.424-.018 2.342-1.142 2.342-2.882zM37.154 9.354c.131 1.16 1.312 1.921 2.904 1.921 1.536 0 2.623-.761 2.623-1.812 0-.907-.656-1.45-2.23-1.831l-1.573-.363c-2.23-.526-3.26-1.523-3.26-3.154 0-2.03 1.817-3.408 4.421-3.408 2.567 0 4.328 1.396 4.384 3.408h-1.836c-.112-1.178-1.105-1.885-2.566-1.885-1.462 0-2.455.707-2.455 1.758 0 .834.637 1.323 2.211 1.686l1.33.326c2.492.562 3.522 1.541 3.522 3.245 0 2.194-1.798 3.571-4.683 3.571-2.698 0-4.497-1.341-4.628-3.462h1.836zM48.507 2.048v2.03h1.686v1.397h-1.686v4.713c0 .725.337 1.07 1.068 1.07.187 0 .487-.019.6-.037v1.378c-.206.054-.6.072-1.012.072-1.799 0-2.492-.652-2.492-2.302V5.475H45.38V4.079h1.292v-2.03h1.836zM51.168 8.357c0-2.683 1.63-4.387 4.196-4.387 2.567 0 4.197 1.686 4.197 4.387 0 2.7-1.63 4.387-4.197 4.387-2.585-.018-4.196-1.704-4.196-4.387zm6.538 0c0-1.85-.88-2.937-2.342-2.937-1.461 0-2.342 1.106-2.342 2.937 0 1.849.88 2.937 2.342 2.937 1.461-.019 2.342-1.088 2.342-2.937zM61.04 4.079h1.724v1.45h.038c.28-.96 1.086-1.54 2.135-1.54.263 0 .487.035.619.072v1.65c-.15-.055-.469-.11-.825-.11-1.161 0-1.892.762-1.892 1.976v5.076h-1.817V4.08h.019zM73.93 10.115c-.244 1.56-1.799 2.61-3.803 2.61-2.567 0-4.16-1.667-4.16-4.35s1.612-4.423 4.085-4.423c2.454 0 3.99 1.631 3.99 4.224v.598h-6.238v.109c0 1.468.955 2.429 2.379 2.429 1.012 0 1.798-.472 2.042-1.197h1.705zM67.804 7.56h4.42c-.037-1.305-.898-2.175-2.172-2.175-1.255 0-2.155.888-2.248 2.175z" transform="translate(9.367 8.067) translate(23.508 8.248)"></path></g></g><g fill="#FFF"><path d="M2.204.295c1.73 0 2.746.99 2.746 2.692 0 1.719-1.015 2.709-2.746 2.709H.098v-5.4h2.106zM1.001 4.931h1.11c1.222 0 1.936-.711 1.936-1.944 0-1.216-.714-1.928-1.937-1.928H1v3.872zM5.966 3.664c0-1.32.79-2.119 2.087-2.119 1.279 0 2.087.8 2.087 2.119 0 1.32-.79 2.118-2.087 2.118-1.279 0-2.087-.798-2.087-2.118zm3.272 0c0-.886-.433-1.407-1.185-1.407s-1.185.521-1.185 1.407c0 .885.433 1.406 1.185 1.406.752-.017 1.185-.52 1.185-1.406zM15.669 5.696L14.767 5.696 13.845 2.691 13.77 2.691 12.867 5.696 11.965 5.696 10.742 1.615 11.626 1.615 12.416 4.723 12.472 4.723 13.375 1.615 14.203 1.615 15.105 4.723 15.18 4.723 15.97 1.615 16.835 1.615zM17.907 1.615h.847v.642h.056c.207-.451.658-.729 1.316-.729.978 0 1.524.538 1.524 1.51v2.64h-.865v-2.43c0-.66-.301-.973-.96-.973-.639 0-1.053.4-1.053 1.024v2.38h-.865V1.614zM23.041.035L23.906.035 23.906 5.696 23.041 5.696zM25.129 3.664c0-1.32.79-2.119 2.087-2.119 1.279 0 2.088.8 2.088 2.119 0 1.32-.79 2.118-2.088 2.118-1.297 0-2.087-.798-2.087-2.118zm3.272 0c0-.886-.433-1.407-1.185-1.407s-1.185.521-1.185 1.407c0 .885.433 1.406 1.185 1.406.752-.017 1.185-.52 1.185-1.406zM30.206 4.55c0-.73.583-1.164 1.636-1.216l1.204-.07v-.347c0-.434-.3-.677-.903-.677-.489 0-.827.156-.921.451h-.846c.094-.694.808-1.146 1.805-1.146 1.11 0 1.73.504 1.73 1.372v2.779h-.846v-.574h-.057c-.263.4-.752.643-1.316.643-.865 0-1.486-.469-1.486-1.216zm2.84-.348v-.347l-1.072.07c-.602.034-.884.225-.884.59 0 .364.339.573.828.573.64 0 1.128-.382 1.128-.886zM35.058 3.664c0-1.285.715-2.101 1.824-2.101.602 0 1.11.26 1.354.712h.057V.035h.865v5.66h-.828v-.642h-.056c-.263.451-.771.712-1.392.712-1.11 0-1.824-.816-1.824-2.101zm.903 0c0 .868.432 1.389 1.185 1.389.733 0 1.184-.52 1.184-1.39 0-.85-.45-1.388-1.184-1.388-.753 0-1.185.52-1.185 1.389zM42.787 3.664c0-1.32.79-2.119 2.088-2.119 1.279 0 2.087.8 2.087 2.119 0 1.32-.79 2.118-2.087 2.118-1.298 0-2.088-.798-2.088-2.118zm3.254 0c0-.886-.433-1.407-1.185-1.407s-1.185.521-1.185 1.407c0 .885.433 1.406 1.185 1.406.771-.017 1.185-.52 1.185-1.406zM48.11 1.615h.846v.642h.056c.207-.451.658-.729 1.317-.729.978 0 1.523.538 1.523 1.51v2.64h-.865v-2.43c0-.66-.301-.973-.96-.973-.639 0-1.052.4-1.052 1.024v2.38h-.865V1.614zM56.779.608V1.65h.96v.677h-.96v2.1c0 .435.188.609.62.609.132 0 .207 0 .34-.018v.678c-.151.017-.302.034-.471.034-.978 0-1.354-.312-1.354-1.094v-2.31h-.696V1.65h.696V.608h.865zM58.923.035h.865v2.24h.075c.207-.452.677-.73 1.354-.73.94 0 1.524.556 1.524 1.511v2.64h-.866V3.264c0-.642-.32-.972-.94-.972-.714 0-1.11.417-1.11 1.042v2.379h-.864V.035h-.038zM67.8 4.602c-.208.729-.903 1.18-1.919 1.18-1.26 0-2.03-.798-2.03-2.1 0-1.303.789-2.137 2.03-2.137 1.222 0 1.975.782 1.975 2.05v.277h-3.122v.052c.038.712.47 1.164 1.185 1.164.526 0 .884-.174 1.053-.486h.827zm-3.066-1.32h2.238c-.019-.643-.433-1.06-1.09-1.06-.64 0-1.092.417-1.148 1.06z" transform="translate(35 8)"></path></g></g></svg> 