<?xml version="1.0" encoding="UTF-8"?> <svg xmlns="http://www.w3.org/2000/svg" viewBox="0 0 33 54"><defs><style>.cls-1{fill:#fff;}.cls-2{fill:#00bed7;}</style></defs><g id="Layer_2" data-name="Layer 2"><g id="Layer_1-2" data-name="Layer 1"><rect width="33" height="54" rx="4"></rect><rect class="cls-1" x="2.94" y="4.44" width="27.11" height="39.2"></rect><circle class="cls-2" cx="16.37" cy="21.08" r="9.29" transform="translate(-9.37 28.14) rotate(-67.5)"></circle><polygon class="cls-1" points="21.04 19.18 18.24 19.18 18.24 16.32 14.51 16.32 14.51 19.18 11.7 19.18 11.7 22.98 14.51 22.98 14.51 25.84 18.24 25.84 18.24 22.98 21.04 22.98 21.04 19.18"></polygon><rect class="cls-1" x="20.92" y="47.24" width="4.21" height="1.23"></rect><rect class="cls-1" x="8.23" y="47.24" width="4.21" height="1.23"></rect><path class="cls-1" d="M18.71,48.05a2.21,2.21,0,1,1-2.21-2.21A2.21,2.21,0,0,1,18.71,48.05Z"></path></g></g></svg> 