<?xml version="1.0" encoding="UTF-8"?> <svg xmlns="http://www.w3.org/2000/svg" width="43" height="42" viewBox="0 0 43 42"><g fill="none"><path fill="#101820" d="M41.13 6.37h-12.7V1c0-.55-.45-1-1-1H14.7c-.55 0-1 .45-1 1v5.37H1c-.55 0-1 .45-1 1v12.25c0 .55.45 1 1 1h2.27v20.01c0 .55.45 1 1 1h33.6c.55 0 1-.45 1-1V20.62h2.27c.55 0 1-.45 1-1V7.37c-.01-.55-.46-1-1.01-1zM17.1 39.43h-2.83V26.61h2.83v12.82zm-4.83 0H9.39V26.61h2.88v12.82zm24.59.21H19.1V25.61c0-.55-.45-1-1-1H8.39c-.55 0-1 .45-1 1v14.03H5.27V20.63h31.6v19.01h-.01zm3.27-21.02H1.99V8.37h11.7v5.37c0 .55.45 1 1 1h12.73c.55 0 1-.45 1-1V8.37h11.7v10.25h.01zM26.43 2v10.73H15.7V2h10.73z"></path><path fill="#00BED6" d="M16.82 8.84L19.59 8.84 19.59 11.61 22.53 11.61 22.53 8.84 25.31 8.84 25.31 5.9 22.53 5.9 22.53 3.13 19.59 3.13 19.59 5.9 16.82 5.9z"></path><path fill="#101820" d="M21.6 35.47h12.93c.55 0 1-.45 1-1v-8.86c0-.55-.45-1-1-1H21.6c-.55 0-1 .45-1 1v8.86c0 .55.45 1 1 1zm1-8.86h10.93v6.86H22.6v-6.86z"></path></g></svg> 