<?xml version="1.0" encoding="UTF-8"?> <svg xmlns="http://www.w3.org/2000/svg" width="117" height="35" viewBox="0 0 117 35"><defs><linearGradient id="prefix__a" x1="80.773%" x2="-157.33%" y1="50.022%" y2="50.022%"><stop offset="0%" stop-color="#FFDF00"></stop><stop offset="40.87%" stop-color="#FBBC0E"></stop><stop offset="77.54%" stop-color="#F9A418"></stop><stop offset="100%" stop-color="#F89B1C"></stop></linearGradient><linearGradient id="prefix__b" x1="86.284%" x2="-50.16%" y1="31.502%" y2="133.379%"><stop offset="0%" stop-color="#EE4447"></stop><stop offset="100%" stop-color="#C5166C"></stop></linearGradient><linearGradient id="prefix__c" x1="-50.767%" x2="60.636%" y1="-33.821%" y2="49.36%"><stop offset="0%" stop-color="#269E6F"></stop><stop offset="5.09%" stop-color="#2BA06F"></stop><stop offset="46.63%" stop-color="#53B26B"></stop><stop offset="79.71%" stop-color="#6BBD69"></stop><stop offset="100%" stop-color="#74C168"></stop></linearGradient></defs><g fill="none"><path fill="#000" d="M112.667 35H4.333C1.948 35 0 33.034 0 30.625V4.375C0 1.966 1.948 0 4.333 0h108.334C115.052 0 117 1.966 117 4.375v26.25c0 2.409-1.948 4.375-4.333 4.375z"></path><g fill="#FFF" stroke="#FFF" stroke-width=".072"><path d="M5.666 2.744c0 .683-.214 1.213-.659 1.623-.494.485-1.136.712-1.943.712-.757 0-1.416-.242-1.943-.728C.594 3.866.314 3.26.314 2.547c0-.712.264-1.319.807-1.804C1.648.258 2.307.015 3.064.015c.379 0 .741.06 1.087.197s.626.319.823.546l-.46.425C4.166.803 3.69.606 3.063.606c-.56 0-1.037.182-1.449.546-.411.364-.609.834-.609 1.395 0 .576.198 1.046.61 1.395.41.364.888.546 1.448.546.593 0 1.087-.182 1.466-.546.247-.243.395-.56.444-.985h-1.91V2.38h2.552c.033.122.05.243.05.364zM9.716.713L7.312.713 7.312 2.259 9.486 2.259 9.486 2.835 7.312 2.835 7.312 4.382 9.716 4.382 9.716 4.973 6.637 4.973 6.637.121 9.716.121zM12.581 4.973L11.906 4.973 11.906.713 10.441.713 10.441.121 14.063.121 14.063.713 12.598.713 12.598 4.973zM16.681 4.973L16.681.121 17.356.121 17.356 4.973 16.681 4.973zM20.353 4.973L19.678 4.973 19.678.713 18.213.713 18.213.121 21.835.121 21.835.713 20.37.713 20.37 4.973zM28.701 4.351c-.527.486-1.169.743-1.926.743-.774 0-1.416-.242-1.927-.743-.527-.485-.774-1.091-.774-1.804 0-.712.264-1.304.774-1.804.51-.485 1.17-.743 1.927-.743.774 0 1.416.243 1.926.743.527.5.774 1.092.774 1.804 0 .713-.263 1.304-.774 1.804zm-3.375-.409c.395.364.872.546 1.432.546.56 0 1.038-.182 1.433-.546.395-.364.593-.834.593-1.395 0-.56-.198-1.03-.593-1.395-.395-.364-.873-.546-1.433-.546s-1.037.182-1.432.546c-.395.364-.593.834-.593 1.395s.198 1.031.593 1.395zM30.43 4.973L30.43.121 31.253.121 33.822 3.897 33.855 3.897 33.822 2.957 33.822.121 34.497.121 34.497 4.973 33.789 4.973 31.105 1.016 31.072 1.016 31.105 1.956 31.105 4.988 30.43 4.988z" transform="translate(35 6)"></path></g><path fill="#FFF" d="M58.632 19.874c-2.06 0-3.727 1.467-3.727 3.504 0 2.022 1.667 3.504 3.727 3.504 2.059 0 3.726-1.482 3.726-3.504 0-2.037-1.667-3.504-3.726-3.504zm0 5.619c-1.128 0-2.092-.88-2.092-2.13 0-1.266.964-2.13 2.092-2.13 1.127 0 2.091.864 2.091 2.13.017 1.265-.964 2.13-2.091 2.13zm-8.123-5.619c-2.059 0-3.726 1.467-3.726 3.504 0 2.022 1.667 3.504 3.726 3.504 2.06 0 3.726-1.482 3.726-3.504 0-2.037-1.667-3.504-3.726-3.504zm0 5.619c-1.127 0-2.092-.88-2.092-2.13 0-1.266.965-2.13 2.092-2.13 1.128 0 2.092.864 2.092 2.13 0 1.265-.964 2.13-2.092 2.13zm-9.675-4.554v1.482h3.776c-.115.834-.409 1.451-.85 1.868-.556.525-1.406 1.096-2.91 1.096-2.32 0-4.134-1.76-4.134-3.952s1.814-3.951 4.135-3.951c1.258 0 2.157.463 2.843 1.065l1.112-1.05C43.858 16.648 42.616 16 40.85 16 37.68 16 35 18.439 35 21.449c0 2.994 2.664 5.448 5.85 5.448 1.717 0 3.008-.524 4.021-1.528 1.046-.988 1.356-2.361 1.356-3.473 0-.34-.032-.663-.081-.926h-5.312v-.03zm39.55 1.158c-.31-.787-1.259-2.238-3.17-2.238-1.913 0-3.498 1.42-3.498 3.504 0 1.96 1.569 3.504 3.677 3.504 1.7 0 2.68-.988 3.089-1.56l-1.259-.802c-.424.587-.996.972-1.83.972-.833 0-1.422-.355-1.798-1.065l4.969-1.945-.18-.37zm-5.066 1.173c-.05-1.358 1.11-2.037 1.944-2.037.654 0 1.193.308 1.373.74l-3.317 1.297zm-4.037 3.396h1.634V16.355h-1.634v10.31zm-2.664-6.02h-.049c-.36-.417-1.062-.787-1.961-.787-1.863 0-3.563 1.543-3.563 3.52 0 1.96 1.7 3.488 3.563 3.488.882 0 1.585-.37 1.961-.803h.049v.51c0 1.342-.752 2.052-1.977 2.052-.997 0-1.618-.679-1.863-1.25l-1.422.556c.408.926 1.487 2.068 3.285 2.068 1.912 0 3.53-1.065 3.53-3.658v-6.298h-1.553v.602zm-1.88 4.847c-1.127 0-2.059-.895-2.059-2.115 0-1.235.948-2.145 2.06-2.145 1.11 0 1.977.91 1.977 2.145.016 1.235-.866 2.115-1.977 2.115zm21.279-9.123H84.11v10.311h1.634v-3.905h2.272c1.798 0 3.579-1.235 3.579-3.195 0-1.991-1.765-3.21-3.58-3.21zm.049 4.955h-2.32v-3.534h2.32c1.226 0 1.912.957 1.912 1.76 0 .817-.686 1.774-1.912 1.774zm10.067-1.482c-1.177 0-2.402.494-2.909 1.575l1.438.571c.31-.571.883-.756 1.487-.756.85 0 1.7.478 1.716 1.327v.108c-.294-.154-.931-.401-1.7-.401-1.552 0-3.137.802-3.137 2.315 0 1.374 1.275 2.27 2.713 2.27 1.095 0 1.7-.464 2.075-1.004h.05v.802h1.568V22.7c.017-1.821-1.438-2.856-3.3-2.856zm-.196 5.65c-.54 0-1.275-.247-1.275-.88 0-.803.932-1.096 1.733-1.096.719 0 1.045.139 1.487.34-.131.957-1.014 1.636-1.945 1.636zm9.234-5.418l-1.863 4.46h-.05l-1.944-4.46h-1.749l2.91 6.251-1.652 3.473h1.7L109 20.075h-1.83zm-14.676 6.59h1.634v-10.31h-1.634v10.31z"></path><g><path fill="#5BC8F3" d="M1.084.571C.834.818.692 1.22.692 1.73v18.222c0 .51.141.91.392 1.158l.063.062 10.372-10.208v-.247L1.147.51 1.084.57z" transform="translate(9 7)"></path><path fill="url(#prefix__a)" d="M14.97 14.362l-3.451-3.398v-.247L14.97 7.32l.078.046 4.095 2.286c1.177.648 1.177 1.73 0 2.378l-4.095 2.285-.078.047z" transform="translate(9 7)"></path><path fill="url(#prefix__b)" d="M15.049 14.315l-3.53-3.474L1.084 21.11c.392.401 1.02.448 1.742.046l12.223-6.84" transform="translate(9 7)"></path><path fill="url(#prefix__c)" d="M15.049 7.366L2.826.525C2.104.124 1.476.17 1.084.571l10.435 10.27 3.53-3.475z" transform="translate(9 7)"></path></g><path fill="#A6A5A5" d="M112.667.705c2.012 0 3.635 1.655 3.635 3.67v26.25c0 2.032-1.64 3.67-3.635 3.67H4.333c-2.012 0-3.635-1.655-3.635-3.67V4.375c0-2.032 1.64-3.67 3.635-3.67h108.334m0-.705H4.333C1.948 0 0 1.966 0 4.375v26.25C0 33.034 1.948 35 4.333 35h108.334c2.385 0 4.333-1.966 4.333-4.375V4.375C117 1.966 115.052 0 112.667 0z"></path></g></svg> 