<?xml version="1.0" encoding="UTF-8"?> <svg xmlns="http://www.w3.org/2000/svg" width="30" height="45" viewBox="0 0 30 45"><g fill="none" fill-rule="evenodd"><path d="M14.81 36.52c-.59 0-1.06.48-1.06 1.06 0 .58.48 1.06 1.06 1.06.58 0 1.06-.48 1.06-1.06 0-.58-.48-1.06-1.06-1.06zM10.19 26.12c-.2.22-.47.33-.74.33-.24 0-.48-.09-.67-.26-.41-.37-.44-1-.06-1.41L22.43 9.77c.09-.1.19-.17.31-.22V7.18H21.1c-.04.09-.08.17-.15.25l-9.54 10.44c-.2.22-.47.33-.74.33-.24 0-.48-.09-.67-.26-.41-.37-.44-1-.06-1.41l8.53-9.33H6.88v23.38h15.86V12.42l-12.55 13.7z"></path><path d="M3.26 2C2.56 2 2 2.57 2 3.26v38.09c0 .7.57 1.26 1.26 1.26h23.08c.7 0 1.26-.57 1.26-1.26V3.26c0-.7-.57-1.26-1.26-1.26H3.26zm11.55 38.65c-1.69 0-3.06-1.37-3.06-3.06s1.37-3.06 3.06-3.06 3.06 1.37 3.06 3.06c0 1.68-1.38 3.06-3.06 3.06zm9.92-9.11c0 .55-.45 1-1 1H5.88c-.55 0-1-.45-1-1V6.16c0-.55.45-1 1-1h17.86c.55 0 1 .45 1 1v25.38h-.01z"></path><path fill="#00BED6" fill-rule="nonzero" d="M9.99 17.9c.19.18.43.26.67.26.27 0 .54-.11.74-.33l9.54-10.44c.07-.07.11-.16.15-.25h-2.63l-8.53 9.33c-.38.43-.35 1.06.06 1.43zM8.72 24.77c-.37.41-.34 1.04.06 1.41.19.18.43.26.67.26.27 0 .54-.11.74-.33l12.54-13.73V9.53c-.11.05-.22.13-.31.22L8.72 24.77z"></path><path fill="#101820" fill-rule="nonzero" d="M3.26 0C1.46 0 0 1.46 0 3.26v38.09c0 1.8 1.46 3.26 3.26 3.26h23.08c1.8 0 3.26-1.46 3.26-3.26V3.26c0-1.8-1.46-3.26-3.26-3.26H3.26zm24.35 3.26v38.09c0 .7-.57 1.26-1.26 1.26H3.26c-.7 0-1.26-.57-1.26-1.26V3.26C2 2.56 2.57 2 3.26 2h23.08c.7 0 1.27.57 1.27 1.26z"></path><path fill="#101820" fill-rule="nonzero" d="M23.73 5.16H5.88c-.55 0-1 .45-1 1v25.38c0 .55.45 1 1 1h17.86c.55 0 1-.45 1-1V6.16c-.01-.56-.45-1-1.01-1zM6.88 30.54V7.16H22.73V30.54H6.88zM14.81 34.52c-1.69 0-3.06 1.37-3.06 3.06s1.37 3.06 3.06 3.06 3.06-1.37 3.06-3.06-1.38-3.06-3.06-3.06zm0 4.13c-.59 0-1.06-.48-1.06-1.06 0-.58.48-1.06 1.06-1.06.58 0 1.06.48 1.06 1.06 0 .58-.48 1.06-1.06 1.06z"></path></g></svg> 