<?xml version="1.0" encoding="UTF-8"?> <svg xmlns="http://www.w3.org/2000/svg" width="48" height="39" viewBox="0 0 48 39"><g fill="none" fill-rule="evenodd"><path d="M17.698 23.676c-2.27 0-4.12 1.85-4.12 4.12v8.48h8.23v-8.48c.01-2.28-1.84-4.12-4.11-4.12zm2.59 7.79c-.41 0-.75-.33-.75-.75 0-.41.33-.75.75-.75.41 0 .75.33.75.75s-.34.75-.75.75zM38.458 4.566h-3.86v3.67c0 .05-.02.09-.03.13l3.89 3.09v-6.89zM3.838 18.606L43.568 18.076 23.718 2.296z"></path><path d="M8.738 36.266h2.85v-8.48c0-3.37 2.74-6.12 6.12-6.12s6.12 2.74 6.12 6.12v8.48h15.47v-16.13l-30.55.4v15.73h-.01zm18.11-12.45c0-.55.45-1 1-1h8.39c.55 0 1 .45 1 1v5.31c0 .55-.45 1-1 1h-8.39c-.55 0-1-.45-1-1v-5.31z"></path><path fill="#101820" fill-rule="nonzero" d="M40.458 13.046v-8.94c0-.85-.69-1.54-1.54-1.54h-4.77c-.85 0-1.54.69-1.54 1.54v2.68l-8.26-6.57c-.37-.29-.89-.29-1.26.01L.368 18.876c-.33.27-.45.72-.31 1.12.14.4.52.66.94.66h.01l5.73-.08v16.7c0 .55.45 1 1 1h32.55c.55 0 1-.45 1-1v-17.16l5.12-.07c.42-.01.8-.28.93-.68.14-.4.01-.84-.32-1.11l-6.56-5.21zm-5.86-4.81v-3.67h3.86v6.89l-3.89-3.09c.01-.05.03-.09.03-.13zm-21.01 28.03v-8.48c0-2.27 1.85-4.12 4.12-4.12s4.12 1.85 4.12 4.12v8.48h-8.24zm25.7 0h-15.47v-8.48c0-3.37-2.74-6.12-6.12-6.12s-6.12 2.74-6.12 6.12v8.48h-2.85v-15.72l30.55-.4v16.12h.01zm-35.45-17.66l19.88-16.32 19.85 15.79-39.73.53z"></path><path fill="#101820" fill-rule="nonzero" d="M20.288 29.966c-.41 0-.75.33-.75.75 0 .41.33.75.75.75.41 0 .75-.33.75-.75 0-.41-.34-.75-.75-.75z"></path><path fill="#00BED6" fill-rule="nonzero" d="M27.848 30.126h8.39c.55 0 1-.45 1-1v-5.31c0-.55-.45-1-1-1h-8.39c-.55 0-1 .45-1 1v5.31c0 .56.45 1 1 1zm1-5.31h6.39v3.31h-6.39v-3.31z"></path></g></svg> 