<?xml version="1.0" encoding="UTF-8"?> <svg xmlns="http://www.w3.org/2000/svg" width="59" height="40" viewBox="0 0 59 40"><g fill="none"><path fill="#101820" d="M55.41 17.06l-2.83-6.51h.06c.55 0 1-.45 1-1V7.01c0-1.91-1.56-3.47-3.47-3.47h-8.86V1c0-.55-.45-1-1-1H1C.45 0 0 .45 0 1v31.62c0 .55.45 1 1 1h7.43c.2 3.19 2.86 5.73 6.1 5.73 3.24 0 5.9-2.54 6.1-5.73H41.4c.2 3.19 2.86 5.73 6.1 5.73 3.24 0 5.9-2.54 6.1-5.73h3.54c.55 0 1-.45 1-1V20.46c.02-1.66-1.16-3.06-2.73-3.4zm-3.77 16.18c0 2.27-1.85 4.12-4.12 4.12s-4.12-1.85-4.12-4.12 1.85-4.12 4.12-4.12 4.12 1.85 4.12 4.12zm-32.98 0c0 2.27-1.85 4.12-4.12 4.12s-4.12-1.85-4.12-4.12 1.85-4.12 4.12-4.12 4.12 1.85 4.12 4.12zm37.5-12.35h-4c-.55 0-1 .45-1 1v2.43c0 1.77 1.44 3.21 3.21 3.21h1.79v4.1h-2.74c-.71-2.6-3.08-4.51-5.9-4.51-2.82 0-5.19 1.92-5.9 4.51h-.3V18.98h13.36c.82 0 1.49.67 1.49 1.49v.42h-.01zm0 2v2.64h-1.79c-.67 0-1.21-.54-1.21-1.21v-1.43h3zm-14.85-5.91v-6.42h9.09l2.79 6.42H41.31zm10.33-9.96v1.54H41.31V5.55h8.86c.81 0 1.47.66 1.47 1.47zM2 2.01h37.31V31.63H20.43c-.71-2.6-3.08-4.51-5.9-4.51-2.82 0-5.19 1.92-5.9 4.51H1.99V2.01H2z"></path><path fill="#00BED6" d="M18.57 24.38L23.8 24.38 23.8 19.45 28.76 19.45 28.76 14.19 23.8 14.19 23.8 9.26 18.57 9.26 18.57 14.19 13.62 14.19 13.62 19.45 18.57 19.45z"></path></g></svg> 