<?xml version="1.0" encoding="UTF-8"?> <svg xmlns="http://www.w3.org/2000/svg" width="41" height="35" viewBox="0 0 41 35"><g fill="none" fill-rule="evenodd"><path d="M32.41 30.1c-.74 0-1.35.61-1.35 1.35 0 .74.61 1.35 1.35 1.35.74 0 1.35-.61 1.35-1.35 0-.74-.61-1.35-1.35-1.35zM19.82 6.28L20.69 12.47 28.28 12.47 28.94 6.28zM27.44 20.31L28.07 14.47 20.97 14.47 21.8 20.31zM16.77 30.1c-.74 0-1.35.61-1.35 1.35 0 .74.61 1.35 1.35 1.35.74 0 1.35-.61 1.35-1.35 0-.74-.6-1.35-1.35-1.35zM18.67 12.47L17.8 6.28 9.9 6.28 11.33 12.47zM30.29 12.47L36.6 12.47 38 6.28 30.95 6.28zM18.95 14.47L11.79 14.47 13.15 20.31 19.78 20.31zM30.08 14.47L29.45 20.31 34.82 20.31 36.14 14.47z"></path><path fill="#101820" fill-rule="nonzero" d="M39.25 4.28H9.43L8.62.77C8.52.32 8.11 0 7.65 0H1.5C.95 0 .5.45.5 1s.45 1 1 1h5.35l4.5 19.41c.01.11.03.22.07.31l1.03 4.45c.1.45.51.77.97.77h21.51c.55 0 1-.45 1-1s-.45-1-1-1H14.22l-.61-2.63h22.01c.47 0 .87-.32.98-.78l3.63-16.02c.07-.3 0-.61-.19-.84-.2-.25-.49-.39-.79-.39zm-18.56 8.19l-.87-6.19h9.12l-.66 6.19h-7.59zm7.38 2l-.63 5.84H21.8l-.82-5.84h7.09zM17.8 6.28l.87 6.19h-7.34L9.9 6.28h7.9zm-6.01 8.19h7.16l.82 5.84h-6.62l-1.36-5.84zm23.03 5.84h-5.37l.63-5.84h6.07l-1.33 5.84zm1.78-7.84h-6.3l.66-6.19H38l-1.4 6.19zM16.77 28.1c-1.85 0-3.35 1.5-3.35 3.35s1.5 3.35 3.35 3.35 3.35-1.5 3.35-3.35-1.5-3.35-3.35-3.35zm0 4.7c-.74 0-1.35-.61-1.35-1.35 0-.75.61-1.35 1.35-1.35.74 0 1.35.61 1.35 1.35 0 .75-.6 1.35-1.35 1.35zM32.41 28.1c-1.85 0-3.35 1.5-3.35 3.35s1.5 3.35 3.35 3.35 3.35-1.5 3.35-3.35-1.51-3.35-3.35-3.35zm0 4.7c-.74 0-1.35-.61-1.35-1.35 0-.75.61-1.35 1.35-1.35.74 0 1.35.61 1.35 1.35 0 .75-.61 1.35-1.35 1.35z"></path><path fill="#00BED6" fill-rule="nonzero" d="M8.91 21.25H4.46c-.55 0-1 .45-1 1s.45 1 1 1h4.45c.55 0 1-.45 1-1s-.45-1-1-1zM8.91 24.9H1c-.55 0-1 .45-1 1s.45 1 1 1h7.91c.55 0 1-.45 1-1s-.45-1-1-1z"></path></g></svg> 