<?xml version="1.0" encoding="UTF-8"?> <svg xmlns="http://www.w3.org/2000/svg" width="54" height="52" viewBox="0 0 54 52"><g fill="none" fill-rule="evenodd"><path d="M22.17 28.55c.71-.31 1.71-.82 2.64-1.45-.02.01-.04.01-.06.02-.33.12-.68.22-1.03.29l-.18.03c-.35.06-.7.1-1.06.1h-.61c-.83 0-1.61-.17-2.34-.44.91.62 1.92 1.14 2.64 1.45zM24.62 29.34c1.18.65 1.9 1.67 2.28 2.58.9-.48 1.63-1.11 2.23-1.74.06-.12.15-.21.26-.29.77-.88 1.28-1.75 1.55-2.29l-2.27-2.13c-.68 1.69-2.52 3.01-4.05 3.87zM32.78 13.25c-.08-.07-.17-.13-.26-.17 0 0-.01 0-.01-.01v1.55c0 .48-.03.97-.08 1.44.33-.34.59-.83.66-1.52.04-.6-.06-1.04-.31-1.29zM24.57 7.34c.17-.25.46-.4.77-.39.31.01.59.18.74.44.01.02 1.33 2.15 4.62 3.4V8.71c0-.81-.16-1.6-.45-2.32-.01-.03-.02-.06-.03-.08-.01-.02-.02-.03-.03-.05-.32-.72-.77-1.37-1.34-1.91-.2-.19-.41-.36-.62-.52-.09-.07-.19-.14-.29-.22-.11-.08-.22-.15-.33-.23-.15-.1-.31-.2-.47-.3-.06-.03-.11-.06-.17-.1-.2-.11-.41-.22-.64-.32-.04-.02-.08-.03-.11-.05-.23-.1-.47-.19-.72-.28l-.2-.06c-.21-.07-.43-.13-.66-.18-.13-.03-.25-.06-.38-.08-.17-.03-.35-.06-.53-.09-.18-.02-.35-.05-.53-.07l-.5-.03c-.18-.01-.37-.02-.55-.02-.38 0-.76.01-1.14.05-.13.01-.25.03-.38.05-1.66.23-3.13.85-4.41 1.83-.18.13-.32.24-.45.36-.11.09-.19.17-.28.25-1.18 1.09-1.86 2.68-1.86 4.36V11c3.97-.57 9.73-1.93 10.94-3.66zM33.33 48.11V46.1h-.59c-.5 0-.9-.4-.9-.9s.4-.9.9-.9h.59v-1.7c-.12-1.01-.41-2.11-1.08-2.88-.56-.64-1.33-.95-2.33-.95-.99 0-1.72.3-2.22.91-.96 1.17-.97 3.32-.84 4.62h.7c.5 0 .9.4.9.9s-.4.9-.9.9h-1.48c-.43 0-.8-.3-.88-.72-.04-.18-.86-4.44 1.11-6.83.68-.83 1.6-1.32 2.71-1.49V32.7c-.68.51-1.46.97-2.35 1.31-.11.04-.22.06-.33.06-.16 0-.32-.04-.46-.12-.24-.14-.4-.38-.44-.65-.04-.23-.38-2.02-2.27-2.63v17.44h10.16z"></path><path d="M30.81 31.01v6.04c.99.15 1.83.57 2.52 1.23v-8.89l-1.08-.43c-.33.59-.8 1.32-1.44 2.05zM11.82 13.07c-.1.05-.19.11-.27.19-.25.25-.35.68-.29 1.29.06.69.32 1.17.65 1.52-.06-.49-.09-1-.09-1.5v-1.5zM12.85 38.4c0 .75.61 1.36 1.36 1.36.75 0 1.36-.61 1.36-1.36 0-.75-.61-1.36-1.36-1.36-.75 0-1.36.61-1.36 1.36z"></path><path d="M5.23 38.51c0-.5.4-.9.9-.9s.9.4.9.9v9.6h14.33V30.6c-2.08.54-2.44 2.46-2.48 2.7-.04.27-.2.51-.44.64-.14.08-.3.12-.46.12-.11 0-.22-.02-.32-.06-.89-.35-1.67-.8-2.35-1.31v2.75c1.2.45 2.05 1.6 2.05 2.95 0 1.74-1.42 3.16-3.16 3.16-1.74 0-3.16-1.42-3.16-3.16 0-1.5 1.06-2.76 2.46-3.08v-4.22c0-.03.01-.05.01-.07-.64-.74-1.12-1.47-1.45-2.06l-6.6 2.61c-2.23.88-3.67 3-3.67 5.4V48.1h3.43v-9.59h.01zM17.01 23.02c1.3 1.52 2.92 2.72 4.84 2.72h.61c1.92 0 3.56-1.2 4.86-2.74l.01-.01c.33-.39.64-.81.93-1.23.39-.56.73-1.14 1.03-1.69.22-.41.42-.83.59-1.27.17-.43.31-.87.42-1.32v-.01c.25-.95.38-1.92.38-2.9V12.7c-2.88-.94-4.62-2.48-5.48-3.47-2.75 2.2-9.23 3.27-11.6 3.6v1.74c0 .48.03.96.09 1.43.01.12.03.22.05.33 0 .02.01.04.01.06.01.12.03.23.06.35.05.27.1.5.16.73.23.89.58 1.76 1.03 2.59.53.96 1.18 2 1.96 2.91.03.02.04.03.05.05zm1.33-2.71c.24-.44.78-.6 1.22-.36l.29.16c1.42.77 3.16.74 4.56-.07l.14-.08c.43-.25.98-.1 1.23.33.25.43.1.98-.33 1.23l-.14.08c-.99.58-2.11.87-3.24.87-1.06 0-2.12-.26-3.08-.78l-.29-.16c-.44-.24-.6-.78-.36-1.22z"></path><path d="M17.43 31.92c.38-.91 1.09-1.93 2.28-2.58-1.52-.85-3.36-2.18-4.05-3.87l-2.27 2.13c.5.98 1.76 3.09 4.04 4.32z"></path><path fill="#101820" fill-rule="nonzero" d="M18.7 21.53l.29.16c.95.52 2.02.78 3.08.78 1.12 0 2.25-.29 3.24-.87l.14-.08c.43-.25.58-.8.33-1.23-.25-.43-.8-.58-1.23-.33l-.14.08c-1.39.81-3.14.83-4.56.07l-.29-.16c-.44-.24-.98-.08-1.22.36s-.08.98.36 1.22z"></path><path fill="#101820" fill-rule="nonzero" d="M51.11 21.47H35.74c-1.33 0-2.41 1.08-2.41 2.41v3.59l-.42-.17c-.02-.21-.11-.41-.27-.57l-3.42-3.22c.25-.33.49-.66.71-1 .04-.05.07-.11.11-.17.29-.44.55-.88.79-1.32.02-.04.05-.07.07-.11.24-.45.46-.92.65-1.39.14-.36.26-.73.37-1.11 1.01-.34 2.73-1.27 2.95-3.7v-.01c.11-1.17-.17-2.09-.83-2.73-.48-.47-1.05-.68-1.54-.78V8.7c0-.5-.05-.99-.14-1.48-.01-.04-.01-.09-.02-.13-.01-.06-.03-.12-.05-.18-.34-1.5-1.11-2.87-2.22-3.89 0 0-.01 0-.01-.01C28.76 1.8 26.63.4 23.57.07h-.02C23.14.03 22.72 0 22.27 0h-.06-.17c-.02 0-.03.01-.05.01-.4 0-.8.01-1.21.06-.17.02-.33.04-.46.06-1.95.27-3.7 1.01-5.2 2.17-.21.15-.39.3-.55.44l-.32.29c-1.55 1.43-2.44 3.5-2.44 5.68v2.49c-.48.09-1.05.3-1.53.77-.66.64-.94 1.56-.83 2.74.22 2.43 1.95 3.36 2.95 3.71.26.85.59 1.69 1.03 2.5.46.85 1.02 1.75 1.67 2.59l-3.42 3.22c-.16.15-.25.36-.27.57l-6.6 2.61C1.89 31.06 0 33.84 0 36.98v12.03c0 .5.4.9.9.9h32.53c.29 1 1.21 1.73 2.3 1.73H51.1c1.33 0 2.41-1.08 2.41-2.41V23.87c.01-1.32-1.07-2.4-2.4-2.4zm.61 27.77c0 .33-.27.61-.61.61H35.74c-.33 0-.61-.27-.61-.61V23.87c0-.33.27-.61.61-.61h15.37c.33 0 .61.27.61.61v25.37zM21.86 27.53h.61c.37 0 .72-.04 1.06-.1l.18-.03c.36-.07.7-.17 1.03-.29.02-.01.04-.01.06-.02-.92.63-1.92 1.14-2.64 1.45-.72-.31-1.72-.82-2.65-1.46.74.29 1.51.45 2.35.45zm3.58 5.77c.04.27.2.51.44.65.14.08.3.12.46.12.11 0 .22-.02.33-.06.89-.35 1.67-.8 2.35-1.31v4.36c-1.12.17-2.03.66-2.71 1.49-1.96 2.39-1.14 6.65-1.11 6.83.08.42.45.72.88.72h1.48c.5 0 .9-.4.9-.9s-.4-.9-.9-.9h-.7c-.14-1.29-.12-3.44.84-4.62.5-.61 1.23-.91 2.22-.91 1.01 0 1.77.31 2.33.95.67.76.96 1.87 1.08 2.88v1.7h-.59c-.5 0-.9.4-.9.9s.4.9.9.9h.59v2.01H23.17V30.67c1.89.61 2.24 2.4 2.27 2.63zm7.89 4.99c-.68-.66-1.52-1.08-2.52-1.23v-6.04c.63-.73 1.11-1.46 1.44-2.04l1.08.43v8.88zm-3.94-8.4c-.11.08-.2.17-.26.29-.6.63-1.33 1.26-2.23 1.74-.38-.91-1.09-1.93-2.28-2.58 1.52-.85 3.36-2.18 4.05-3.87l2.27 2.13c-.27.54-.78 1.41-1.55 2.29zm3.68-15.34c-.06.69-.32 1.18-.66 1.52.06-.48.08-.96.08-1.44v-1.55s.01 0 .01.01c.09.04.18.1.26.17.27.24.37.68.31 1.29zM15.48 4.35c.09-.08.17-.16.28-.25.13-.12.27-.23.45-.36 1.27-.98 2.74-1.6 4.41-1.83.12-.02.25-.03.38-.05.38-.04.77-.06 1.14-.05.19 0 .37.01.55.02.17.01.34.01.5.03.18.02.36.04.53.07.18.03.36.05.53.09.13.02.25.05.38.08.23.06.45.12.66.18.07.02.14.04.2.06.25.09.49.18.72.28.04.02.08.03.11.05.22.1.43.21.64.32.06.03.11.06.17.1.17.1.32.2.47.3.11.07.22.15.33.23.1.07.2.14.29.22.21.17.42.34.62.52.58.53 1.03 1.18 1.34 1.91.01.02.02.03.03.05.01.03.02.06.03.08.29.72.45 1.51.45 2.32v2.08c-3.29-1.25-4.61-3.38-4.62-3.4-.16-.27-.44-.43-.74-.44-.31-.02-.6.13-.77.39-1.2 1.74-6.97 3.1-10.95 3.67v-2.3c.01-1.69.69-3.28 1.87-4.37zm-4.23 10.2c-.05-.61.05-1.04.29-1.29.08-.08.17-.14.27-.19v1.49c0 .51.03 1.01.09 1.5-.33-.34-.58-.83-.65-1.51zm2.74 2.91c-.06-.23-.11-.47-.16-.73-.03-.12-.04-.23-.06-.35 0-.02-.01-.04-.01-.06-.02-.11-.03-.21-.05-.33-.06-.47-.09-.95-.09-1.43v-1.74c2.37-.33 8.85-1.41 11.6-3.6.86.99 2.6 2.53 5.48 3.47v1.87c0 .98-.13 1.95-.38 2.9v.01c-.11.44-.25.88-.42 1.32-.17.43-.37.86-.59 1.27-.3.55-.65 1.13-1.03 1.69-.29.42-.6.84-.93 1.23l-.01.01c-1.3 1.53-2.94 2.74-4.86 2.74h-.61c-1.92 0-3.55-1.19-4.84-2.72-.01-.01-.02-.03-.04-.04-.77-.92-1.43-1.95-1.96-2.91-.46-.84-.81-1.71-1.04-2.6zm1.67 8.01c.69 1.69 2.52 3.02 4.05 3.87-1.18.65-1.9 1.67-2.28 2.58-2.27-1.23-3.54-3.34-4.04-4.32l2.27-2.13zm-1.45 11.57c.75 0 1.36.61 1.36 1.36 0 .75-.61 1.36-1.36 1.36-.75 0-1.36-.61-1.36-1.36 0-.75.61-1.36 1.36-1.36zm-12.4-.06c0-2.4 1.44-4.52 3.67-5.4l6.6-2.61c.33.59.81 1.32 1.45 2.06 0 .02-.01.05-.01.07v4.22c-1.41.32-2.46 1.57-2.46 3.08 0 1.74 1.42 3.16 3.16 3.16 1.74 0 3.16-1.42 3.16-3.16 0-1.35-.86-2.5-2.05-2.95V32.7c.68.51 1.46.97 2.35 1.31.1.04.21.06.32.06.16 0 .31-.04.46-.12.24-.14.4-.37.44-.64.04-.24.41-2.16 2.48-2.7v17.51H7.05v-9.6c0-.5-.4-.9-.9-.9s-.9.4-.9.9v9.6H1.82V36.98h-.01z"></path><path fill="#00BED6" fill-rule="nonzero" d="M49.37 24.9H37.48c-.5 0-.9.4-.9.9v16.9c0 .5.4.9.9.9h11.89c.5 0 .9-.4.9-.9V25.8c0-.5-.4-.9-.9-.9zm-.9 16.9H38.38V26.7h10.09v15.1z"></path><circle cx="43.42" cy="46.73" r="1.37" fill="#101820" fill-rule="nonzero"></circle></g></svg> 