<?xml version="1.0" encoding="UTF-8"?> <svg xmlns="http://www.w3.org/2000/svg" xmlns:xlink="http://www.w3.org/1999/xlink" width="40px" height="47px" viewBox="0 0 40 47" version="1.1"><!-- Generator: sketchtool 63.1 (101010) - https://sketch.com --><title>530DCCA4-98A4-4A5C-99B3-CEE3C3583350</title><desc>Created with sketchtool.</desc><g id="Desktop" stroke="none" stroke-width="1" fill="none" fill-rule="evenodd"><g id="Landing-Page" transform="translate(-1131.000000, -2124.000000)"><g id="icon-data-encryption" transform="translate(1131.000000, 2124.000000)"><polygon id="Path" points="25.9906419 10.36 31.5506419 10.36 25.9906419 3.84"></polygon><path d="M23.3806419,33.67 L23.3806419,45.19 L38.0706419,45.19 L38.0706419,33.67 L23.3806419,33.67 Z M31.8206419,39.58 L31.8206419,41.93 C31.8206419,42.53 31.3306419,43.03 30.7206419,43.03 C30.1206419,43.03 29.6206419,42.54 29.6206419,41.93 L29.6206419,39.58 C29.0606419,39.22 28.6806419,38.59 28.6806419,37.87 C28.6806419,36.75 29.5906419,35.84 30.7106419,35.84 C31.8306419,35.84 32.7406419,36.75 32.7406419,37.87 C32.7506419,38.59 32.3806419,39.22 31.8206419,39.58 Z" id="Shape"></path><path d="M26.2406419,31.07 L26.2406419,32.07 L35.2006419,32.07 L35.2006419,31.07 C35.2006419,28.6 33.1906419,26.59 30.7206419,26.59 C28.2506419,26.59 26.2406419,28.6 26.2406419,31.07 Z" id="Path"></path><path d="M0.980641907,42.68 L19.0206419,42.68 C19.5706419,42.68 20.0206419,42.23 20.0206419,41.68 C20.0206419,41.13 19.5706419,40.68 19.0206419,40.68 L1.98064191,40.68 L1.98064191,2.01 L23.9906419,2.01 L23.9906419,11.37 C23.9906419,11.92 24.4406419,12.37 24.9906419,12.37 L32.8206419,12.37 L32.8206419,22.92 C32.8206419,23.47 33.2706419,23.92 33.8206419,23.92 C34.3706419,23.92 34.8206419,23.47 34.8206419,22.92 L34.8206419,11.48 C34.8206419,11.25 34.7406419,11.03 34.6006419,10.85 L34.5106419,10.73 C34.5106419,10.73 34.5006419,10.73 34.5006419,10.72 C34.5006419,10.72 34.5006419,10.71 34.4906419,10.71 L25.7706419,0.48 L25.6806419,0.37 C25.4906419,0.14 25.2106419,-8.17124146e-14 24.9106419,-8.17124146e-14 L1.00064191,-8.17124146e-14 C0.450641907,-8.17124146e-14 0.000641907163,0.45 0.000641907163,1 L0.000641907163,41.67 C-0.0193580928,42.24 0.430641907,42.68 0.980641907,42.68 Z M25.9906419,10.36 L25.9906419,3.83 L31.5506419,10.36 L25.9906419,10.36 Z" id="Shape" fill="#101820" fill-rule="nonzero"></path><path d="M24.6406419,31.07 L24.6406419,32.07 L22.5806419,32.07 C22.1406419,32.07 21.7806419,32.43 21.7806419,32.87 L21.7806419,45.99 C21.7806419,46.43 22.1406419,46.79 22.5806419,46.79 L38.8706419,46.79 C39.3106419,46.79 39.6706419,46.43 39.6706419,45.99 L39.6706419,32.87 C39.6706419,32.43 39.3106419,32.07 38.8706419,32.07 L36.8106419,32.07 L36.8106419,31.07 C36.8106419,27.72 34.0806419,24.99 30.7306419,24.99 C27.3806419,24.99 24.6406419,27.72 24.6406419,31.07 Z M38.0606419,45.2 L23.3706419,45.2 L23.3706419,33.67 L38.0606419,33.67 L38.0606419,45.2 Z M35.2006419,31.07 L35.2006419,32.07 L26.2406419,32.07 L26.2406419,31.07 C26.2406419,28.6 28.2506419,26.59 30.7206419,26.59 C33.1906419,26.59 35.2006419,28.6 35.2006419,31.07 Z" id="Shape" fill="#00BED6" fill-rule="nonzero"></path><path d="M30.7206419,35.84 C29.6006419,35.84 28.6906419,36.75 28.6906419,37.87 C28.6906419,38.59 29.0606419,39.21 29.6306419,39.58 L29.6306419,41.93 C29.6306419,42.53 30.1206419,43.03 30.7306419,43.03 C31.3306419,43.03 31.8306419,42.54 31.8306419,41.93 L31.8306419,39.58 C32.3906419,39.22 32.7706419,38.59 32.7706419,37.87 C32.7506419,36.75 31.8406419,35.84 30.7206419,35.84 Z" id="Path" fill="#00BED6" fill-rule="nonzero"></path><path d="M6.55064191,14.72 L19.4006419,14.72 C19.9506419,14.72 20.4006419,14.27 20.4006419,13.72 C20.4006419,13.17 19.9506419,12.72 19.4006419,12.72 L6.55064191,12.72 C6.00064191,12.72 5.55064191,13.17 5.55064191,13.72 C5.55064191,14.27 6.00064191,14.72 6.55064191,14.72 Z" id="Path" fill="#101820" fill-rule="nonzero"></path><path d="M6.55064191,19.98 L22.5606419,19.98 C23.1106419,19.98 23.5606419,19.53 23.5606419,18.98 C23.5606419,18.43 23.1106419,17.98 22.5606419,17.98 L6.55064191,17.98 C6.00064191,17.98 5.55064191,18.43 5.55064191,18.98 C5.55064191,19.53 6.00064191,19.98 6.55064191,19.98 Z" id="Path" fill="#101820" fill-rule="nonzero"></path><path d="M6.55064191,25.24 L22.5606419,25.24 C23.1106419,25.24 23.5606419,24.79 23.5606419,24.24 C23.5606419,23.69 23.1106419,23.24 22.5606419,23.24 L6.55064191,23.24 C6.00064191,23.24 5.55064191,23.69 5.55064191,24.24 C5.55064191,24.79 6.00064191,25.24 6.55064191,25.24 Z" id="Path" fill="#101820" fill-rule="nonzero"></path></g></g></g></svg> 