<?xml version="1.0" encoding="UTF-8"?> <svg xmlns="http://www.w3.org/2000/svg" width="35" height="42" viewBox="0 0 35 42"><g fill="none" fill-rule="evenodd"><path d="M27.28 3.81L27.28 8.8 31.54 8.8zM29.59 14.03s0 .01.01.01c0 0 .01 0 .01.01l.08.1c.14.18.22.4.22.63v19.81h2.87V10.8h-5.94l2.75 3.23zM22.41 13.68L26.66 13.68 22.41 8.68zM22.1 5.24l.07.09 3.11 3.65V2.01H6.87v2.87h14.46c.29-.01.58.12.77.36z"></path><path fill="#101820" fill-rule="nonzero" d="M34.56 9.27l-.08-.1h-.01s0-.01-.01-.01L27.04.46l-.07-.09C26.78.14 26.5 0 26.2 0H5.87c-.55 0-1 .45-1 1v3.87H1c-.55 0-1 .45-1 1v34.59c0 .55.45 1 1 1h27.92c.55 0 1-.45 1-1v-3.87h3.87c.55 0 1-.45 1-1V9.9c-.01-.23-.09-.45-.23-.63zm-7.28-5.46l4.26 4.99h-4.26V3.81zM1.99 39.46V6.87H20.4v7.81c0 .55.45 1 1 1h6.5v23.78H1.99zm20.42-25.78V8.69l4.26 4.99h-4.26zM6.87 2h18.41v6.97l-3.11-3.65-.07-.09c-.19-.23-.47-.37-.77-.37H6.87V2zm25.91 32.58h-2.87v-19.8c0-.23-.08-.45-.22-.63l-.08-.1s-.01 0-.01-.01c0 0 0-.01-.01-.01l-2.75-3.22h5.94v23.77z"></path><path fill="#101820" fill-rule="nonzero" d="M12.22 22.61h12.45c.55 0 1-.45 1-1s-.45-1-1-1H12.22c-.55 0-1 .45-1 1s.45 1 1 1zM12.22 30.13h12.45c.55 0 1-.45 1-1s-.45-1-1-1H12.22c-.55 0-1 .45-1 1s.45 1 1 1z"></path><path fill="#00BED6" fill-rule="nonzero" d="M5.99 23.23c.19.2.45.31.72.31h.04c.29-.01.55-.14.74-.36l2.58-3.12c.35-.43.29-1.06-.13-1.41-.43-.35-1.06-.29-1.41.13l-1.86 2.25-.7-.73c-.38-.4-1.01-.41-1.41-.03-.4.38-.41 1.01-.03 1.41l1.46 1.55zM5.99 31.38c.19.2.45.31.72.31h.04c.29-.01.55-.14.74-.36l2.58-3.12c.35-.43.29-1.06-.13-1.41-.43-.35-1.06-.29-1.41.13l-1.86 2.25-.7-.73c-.38-.4-1.01-.41-1.41-.03-.4.38-.41 1.01-.03 1.41l1.46 1.55z"></path></g></svg> 