<?xml version="1.0" encoding="UTF-8"?> <svg xmlns="http://www.w3.org/2000/svg" xmlns:xlink="http://www.w3.org/1999/xlink" width="41px" height="54px" viewBox="0 0 41 54" version="1.1"><!-- Generator: sketchtool 63.1 (101010) - https://sketch.com --><title>EF290241-0935-4288-A5B1-7BAEADC4FC18</title><desc>Created with sketchtool.</desc><g id="Desktop" stroke="none" stroke-width="1" fill="none" fill-rule="evenodd"><g id="Landing-Page" transform="translate(-720.000000, -2124.000000)"><g id="icon-qualifiy" transform="translate(720.000000, 2124.000000)"><path d="M23.14,6.2 L11.55,6.2 C10.98,8.83 8.88,10.92 6.24,11.48 L6.24,32.26 C8.88,32.81 10.95,34.84 11.54,37.48 L18.01,37.48 C17.93,36.74 18.26,36.08 18.53,35.54 C18.64,35.33 18.81,34.99 18.82,34.86 C18.81,34.74 18.63,34.4 18.53,34.19 C18.22,33.58 17.83,32.82 18.06,31.95 C18.3,31.06 19.06,30.57 19.62,30.21 C19.8,30.09 20.11,29.89 20.18,29.8 C20.22,29.71 20.24,29.33 20.25,29.11 C20.29,28.42 20.33,27.56 20.97,26.92 C21.61,26.28 22.47,26.23 23.16,26.2 C23.38,26.19 23.76,26.17 23.87,26.12 C23.95,26.06 24.15,25.75 24.27,25.57 C24.63,25.01 25.12,24.25 26.01,24.01 C26.87,23.78 27.63,24.17 28.25,24.48 C28.3,24.5 28.36,24.53 28.42,24.56 L28.42,11.47 C25.8,10.9 23.71,8.81 23.14,6.2 Z M13.84,13.06 L20.83,13.06 C21.38,13.06 21.83,13.51 21.83,14.06 C21.83,14.61 21.38,15.06 20.83,15.06 L13.84,15.06 C13.29,15.06 12.84,14.61 12.84,14.06 C12.84,13.51 13.28,13.06 13.84,13.06 Z M23.75,24.03 L10.91,24.03 C10.36,24.03 9.91,23.58 9.91,23.03 C9.91,22.48 10.36,22.03 10.91,22.03 L23.76,22.03 C24.31,22.03 24.76,22.48 24.76,23.03 C24.76,23.58 24.3,24.03 23.75,24.03 Z M23.75,19.54 L10.91,19.54 C10.36,19.54 9.91,19.09 9.91,18.54 C9.91,17.99 10.36,17.54 10.91,17.54 L23.76,17.54 C24.31,17.54 24.76,17.99 24.76,18.54 C24.76,19.09 24.3,19.54 23.75,19.54 Z" id="Shape"></path><path d="M20.17,39.9 C20.11,39.82 19.8,39.62 19.62,39.5 C19.6,39.49 19.58,39.47 19.56,39.46 L10.68,39.46 C10.16,39.46 9.73,39.06 9.68,38.55 C9.47,36.15 7.57,34.28 5.16,34.11 C4.64,34.07 4.23,33.64 4.23,33.11 L4.23,10.61 C4.23,10.09 4.64,9.65 5.16,9.61 C7.55,9.44 9.49,7.51 9.68,5.12 C9.72,4.6 10.15,4.2 10.68,4.2 L23.99,4.2 C24.51,4.2 24.95,4.6 24.99,5.12 C25.17,7.5 27.11,9.43 29.49,9.61 C30.01,9.65 30.41,10.08 30.41,10.61 L30.41,24.1 C30.84,23.95 31.32,23.86 31.83,24 C32.16,24.09 32.42,24.26 32.65,24.45 L32.65,2 L2,2 L2,41.66 L20.37,41.66 C20.29,41.3 20.26,40.94 20.25,40.61 C20.24,40.39 20.22,40.02 20.17,39.9 Z" id="Path"></path><path d="M13.84,15.06 L20.83,15.06 C21.38,15.06 21.83,14.61 21.83,14.06 C21.83,13.51 21.38,13.06 20.83,13.06 L13.84,13.06 C13.29,13.06 12.84,13.51 12.84,14.06 C12.84,14.61 13.28,15.06 13.84,15.06 Z" id="Path" fill="#101820" fill-rule="nonzero"></path><path d="M23.75,17.54 L10.91,17.54 C10.36,17.54 9.91,17.99 9.91,18.54 C9.91,19.09 10.36,19.54 10.91,19.54 L23.76,19.54 C24.31,19.54 24.76,19.09 24.76,18.54 C24.76,17.99 24.3,17.54 23.75,17.54 Z" id="Path" fill="#101820" fill-rule="nonzero"></path><path d="M23.75,22.03 L10.91,22.03 C10.36,22.03 9.91,22.48 9.91,23.03 C9.91,23.58 10.36,24.03 10.91,24.03 L23.76,24.03 C24.31,24.03 24.76,23.58 24.76,23.03 C24.76,22.48 24.3,22.03 23.75,22.03 Z" id="Path" fill="#101820" fill-rule="nonzero"></path><path d="M22.59,43.66 L22.65,43.49 C22.08,43.43 21.46,43.29 20.97,42.8 C20.63,42.46 20.46,42.06 20.37,41.65 L2,41.65 L2,2 L32.66,2 L32.66,24.44 C33.06,24.77 33.35,25.19 33.58,25.54 C33.7,25.73 33.9,26.03 33.99,26.1 C34.08,26.14 34.43,26.16 34.66,26.17 L34.66,1 C34.66,0.45 34.21,-7.10542736e-14 33.66,-7.10542736e-14 L1,-7.10542736e-14 C0.45,-7.10542736e-14 -7.10542736e-14,0.45 -7.10542736e-14,1 L-7.10542736e-14,42.66 C-7.10542736e-14,43.21 0.45,43.66 1,43.66 L22.59,43.66 Z" id="Path" fill="#101820" fill-rule="nonzero"></path><path d="M29.49,9.61 C27.11,9.43 25.18,7.5 24.99,5.12 C24.95,4.6 24.52,4.2 23.99,4.2 L10.69,4.2 C10.17,4.2 9.73,4.6 9.69,5.12 C9.51,7.51 7.56,9.44 5.17,9.61 C4.65,9.65 4.24,10.08 4.24,10.61 L4.24,33.13 C4.24,33.65 4.65,34.09 5.17,34.13 C7.58,34.3 9.48,36.17 9.69,38.57 C9.74,39.09 10.17,39.48 10.69,39.48 L19.57,39.48 C19.02,39.12 18.3,38.64 18.07,37.78 C18.04,37.68 18.03,37.58 18.02,37.48 L11.55,37.48 C10.96,34.85 8.9,32.81 6.25,32.26 L6.25,11.47 C8.88,10.91 10.98,8.82 11.56,6.19 L23.15,6.19 C23.72,8.81 25.81,10.89 28.43,11.46 L28.43,24.54 C28.62,24.64 28.85,24.74 28.94,24.75 C29.06,24.74 29.4,24.56 29.61,24.46 C29.86,24.33 30.13,24.2 30.43,24.09 L30.43,10.6 C30.42,10.08 30.01,9.65 29.49,9.61 Z" id="Path" fill="#101820" fill-rule="nonzero"></path><path d="M33.58,25.55 C33.35,25.2 33.06,24.78 32.66,24.45 C32.43,24.26 32.17,24.08 31.84,24 C31.33,23.86 30.85,23.95 30.42,24.1 C30.12,24.21 29.85,24.34 29.6,24.47 C29.39,24.57 29.05,24.75 28.93,24.76 C28.83,24.75 28.61,24.65 28.42,24.55 C28.36,24.52 28.3,24.49 28.25,24.47 C27.64,24.16 26.88,23.77 26.01,24 C25.12,24.24 24.63,25 24.27,25.56 C24.15,25.74 23.95,26.05 23.87,26.11 C23.76,26.16 23.38,26.18 23.16,26.19 C22.47,26.23 21.61,26.27 20.97,26.91 C20.33,27.55 20.28,28.41 20.25,29.1 C20.24,29.32 20.22,29.7 20.18,29.79 C20.11,29.89 19.8,30.08 19.62,30.2 C19.06,30.56 18.3,31.05 18.06,31.94 C17.83,32.81 18.22,33.57 18.53,34.18 C18.63,34.39 18.81,34.73 18.82,34.85 C18.81,34.97 18.63,35.32 18.53,35.53 C18.26,36.07 17.92,36.73 18.01,37.47 C18.02,37.57 18.04,37.67 18.06,37.77 C18.29,38.63 19.01,39.12 19.56,39.47 C19.58,39.48 19.6,39.5 19.62,39.51 C19.8,39.63 20.11,39.83 20.17,39.91 C20.22,40.02 20.24,40.4 20.25,40.62 C20.27,40.95 20.29,41.31 20.37,41.67 C20.46,42.07 20.63,42.48 20.97,42.82 C21.46,43.31 22.07,43.45 22.65,43.51 L22.59,43.68 L20.02,50.8 C19.91,51.1 19.99,51.44 20.23,51.66 C20.46,51.88 20.81,51.94 21.1,51.81 L23.86,50.6 L25.32,53.25 C25.46,53.51 25.73,53.66 26.02,53.66 C26.04,53.66 26.06,53.66 26.09,53.66 C26.4,53.63 26.67,53.43 26.78,53.13 L29.55,45.25 C29.57,45.26 29.59,45.27 29.6,45.28 C29.66,45.31 29.72,45.34 29.78,45.37 L33.61,53 C33.75,53.27 34.02,53.44 34.32,53.44 C34.34,53.44 34.35,53.44 34.37,53.44 C34.69,53.42 34.97,53.21 35.08,52.91 L36.1,50.07 L39.03,50.83 C39.33,50.91 39.66,50.8 39.86,50.56 C40.06,50.31 40.09,49.98 39.95,49.69 L36.56,43.06 C36.67,42.99 36.79,42.92 36.89,42.82 C37.53,42.18 37.58,41.32 37.61,40.62 C37.62,40.4 37.64,40.03 37.68,39.93 C37.75,39.83 38.06,39.64 38.24,39.52 C38.8,39.16 39.56,38.67 39.79,37.78 C40.02,36.91 39.63,36.15 39.32,35.54 C39.21,35.33 39.04,34.99 39.03,34.87 C39.04,34.75 39.22,34.4 39.32,34.19 C39.63,33.58 40.02,32.82 39.79,31.95 C39.55,31.06 38.79,30.57 38.23,30.21 C38.05,30.09 37.74,29.89 37.68,29.81 C37.63,29.7 37.61,29.33 37.6,29.1 C37.56,28.41 37.52,27.55 36.88,26.91 C36.24,26.27 35.38,26.22 34.69,26.19 C34.68,26.19 34.67,26.19 34.67,26.19 C34.44,26.18 34.09,26.16 34,26.12 C33.89,26.04 33.7,25.73 33.58,25.55 Z M36,29.19 C36.03,29.68 36.05,30.19 36.29,30.6 C36.52,31 36.95,31.28 37.36,31.55 C37.73,31.79 38.16,32.07 38.24,32.36 C38.31,32.63 38.11,33.03 37.89,33.46 C37.66,33.91 37.43,34.37 37.43,34.86 C37.43,35.35 37.67,35.81 37.89,36.26 C38.11,36.68 38.31,37.08 38.24,37.36 C38.16,37.65 37.74,37.93 37.36,38.17 C36.95,38.44 36.52,38.71 36.29,39.12 C36.05,39.53 36.02,40.04 36,40.54 C35.97,41.02 35.95,41.48 35.74,41.69 C35.53,41.9 35.08,41.92 34.58,41.95 C34.09,41.98 33.58,42 33.17,42.24 C32.77,42.47 32.49,42.9 32.22,43.31 C31.98,43.68 31.7,44.11 31.41,44.19 C31.14,44.26 30.74,44.06 30.31,43.84 C29.86,43.61 29.4,43.38 28.91,43.38 C28.42,43.38 27.96,43.62 27.51,43.84 C27.1,44.05 26.69,44.26 26.41,44.19 C26.12,44.11 25.84,43.69 25.6,43.31 C25.33,42.9 25.06,42.48 24.66,42.24 C24.25,42 23.74,41.97 23.24,41.95 C22.76,41.92 22.3,41.9 22.09,41.69 C21.88,41.48 21.86,41.02 21.83,40.54 C21.8,40.04 21.78,39.53 21.54,39.12 C21.31,38.72 20.88,38.44 20.47,38.17 C20.1,37.93 19.67,37.65 19.59,37.36 C19.52,37.09 19.72,36.69 19.94,36.26 C20.17,35.81 20.4,35.35 20.4,34.86 C20.4,34.37 20.16,33.91 19.94,33.46 C19.73,33.05 19.52,32.64 19.59,32.36 C19.67,32.07 20.09,31.79 20.47,31.55 C20.88,31.28 21.31,31.01 21.54,30.6 C21.78,30.19 21.81,29.67 21.83,29.18 C21.86,28.7 21.88,28.24 22.09,28.03 C22.3,27.82 22.75,27.8 23.24,27.77 C23.74,27.74 24.25,27.72 24.66,27.48 C25.06,27.25 25.34,26.82 25.61,26.41 C25.85,26.03 26.13,25.61 26.42,25.53 C26.46,25.52 26.5,25.51 26.54,25.51 C26.8,25.51 27.15,25.69 27.52,25.87 C27.97,26.1 28.43,26.33 28.92,26.33 C29.41,26.33 29.87,26.09 30.32,25.87 C30.74,25.65 31.14,25.45 31.42,25.52 C31.71,25.6 31.99,26.02 32.23,26.4 C32.5,26.81 32.77,27.24 33.18,27.47 C33.59,27.71 34.1,27.73 34.6,27.76 C35.08,27.79 35.54,27.81 35.75,28.02 C35.95,28.25 35.98,28.7 36,29.19 Z M35.79,48.32 C35.39,48.22 34.98,48.43 34.83,48.82 L34.19,50.59 L31.75,45.73 C31.78,45.72 31.8,45.73 31.82,45.72 C32.71,45.48 33.2,44.72 33.56,44.16 C33.68,43.98 33.88,43.67 33.96,43.61 C34.07,43.56 34.44,43.54 34.67,43.53 C34.77,43.52 34.87,43.52 34.97,43.51 L37.68,48.82 L35.79,48.32 Z M24.9,49.16 C24.7,48.8 24.26,48.65 23.88,48.81 L22.16,49.57 L24.17,44.01 C24.21,44.07 24.24,44.12 24.28,44.17 C24.64,44.73 25.13,45.49 26.02,45.73 C26.62,45.89 27.22,45.73 27.76,45.5 L25.86,50.9 L24.9,49.16 Z" id="Shape" fill="#00BED6" fill-rule="nonzero"></path><path d="M28.93,27.77 C25.02,27.77 21.84,30.95 21.84,34.86 C21.84,38.77 25.02,41.95 28.93,41.95 C32.84,41.95 36.02,38.77 36.02,34.86 C36.02,30.95 32.83,27.77 28.93,27.77 Z M23.44,34.86 C23.44,31.83 25.9,29.37 28.93,29.37 C31.96,29.37 34.42,31.83 34.42,34.86 C34.42,37.89 31.96,40.35 28.93,40.35 C25.9,40.35 23.44,37.88 23.44,34.86 Z" id="Shape" fill="#00BED6" fill-rule="nonzero"></path></g></g></g></svg> 